<?xml version="1.0" standalone="no"?>
<!DOCTYPE svg PUBLIC "-//W3C//DTD SVG 20010904//EN"
 "http://www.w3.org/TR/2001/REC-SVG-20010904/DTD/svg10.dtd">
<svg version="1.0" xmlns="http://www.w3.org/2000/svg"
 width="1024.000000pt" height="1024.000000pt" viewBox="0 0 1024.000000 1024.000000"
 preserveAspectRatio="xMidYMid meet">

<g transform="translate(0.000000,1024.000000) scale(0.100000,-0.100000)"
fill="#000000" stroke="none">
<path d="M6910 8255 c-25 -7 -243 -65 -485 -129 -477 -126 -485 -129 -485
-196 0 -35 23 -64 154 -197 55 -56 98 -105 95 -107 -108 -118 -1157 -1156
-1167 -1156 -9 0 -107 91 -219 203 -201 199 -204 202 -250 205 l-46 3 -659
-658 c-717 -716 -701 -698 -660 -765 11 -18 61 -72 110 -120 92 -91 113 -101
158 -75 12 7 256 244 542 527 287 282 529 518 538 523 12 7 57 -32 212 -186
109 -108 210 -201 225 -206 16 -6 40 -8 55 -5 18 4 263 242 744 722 l718 716
122 -121 c68 -66 133 -124 145 -127 26 -8 78 16 87 40 4 9 42 175 86 368 44
193 96 417 115 497 42 176 43 202 10 234 -28 28 -71 31 -145 10z"/>
<path d="M6233 6715 c-67 -29 -63 63 -63 -1377 0 -1274 1 -1304 20 -1335 31
-51 58 -55 417 -51 l323 3 32 33 33 32 3 1310 c2 1441 6 1352 -58 1385 -41 21
-658 22 -707 0z"/>
<path d="M5124 5786 l-34 -34 0 -864 c0 -949 -4 -890 60 -923 43 -22 667 -22
710 0 64 33 60 -26 60 923 l0 864 -34 34 -34 34 -347 0 -347 0 -34 -34z"/>
<path d="M4093 5350 c-17 -10 -37 -28 -42 -39 -8 -13 -11 -222 -11 -646 0
-692 -2 -667 64 -699 51 -24 621 -24 672 0 66 32 64 8 64 696 -1 674 1 651
-56 689 -27 18 -49 19 -344 19 -294 0 -317 -1 -347 -20z"/>
<path d="M3073 4961 c-52 -33 -54 -53 -51 -518 l3 -423 33 -32 32 -33 309 0
c299 0 311 1 338 21 53 39 53 38 53 482 0 440 -1 454 -50 497 -21 19 -38 20
-329 23 -290 2 -308 1 -338 -17z"/>
<path d="M3327 3289 c-109 -26 -198 -95 -240 -188 -17 -37 -22 -65 -21 -141 0
-83 3 -101 26 -146 39 -75 104 -126 247 -195 193 -94 228 -129 218 -216 -8
-72 -51 -105 -139 -104 -86 0 -130 43 -143 139 l-7 52 -120 0 -121 0 5 -74
c13 -207 173 -327 417 -314 210 12 338 128 349 317 9 162 -57 248 -272 357
-143 73 -172 92 -198 132 -20 31 -23 89 -6 126 33 73 156 84 208 19 11 -14 23
-47 26 -74 l7 -49 110 0 110 0 -5 73 c-8 120 -59 202 -158 252 -79 40 -205 55
-293 34z"/>
<path d="M4972 3290 c-173 -37 -273 -157 -275 -332 0 -67 4 -85 32 -142 42
-85 86 -121 269 -215 159 -82 192 -113 192 -178 0 -74 -56 -126 -135 -126 -75
0 -145 59 -145 123 0 14 -3 35 -6 48 -6 21 -10 22 -126 22 l-121 0 5 -72 c6
-95 36 -160 99 -220 67 -63 138 -89 259 -95 200 -11 343 66 396 214 18 53 18
185 -1 231 -41 98 -105 152 -291 245 -136 68 -184 115 -184 180 0 61 29 103
82 117 49 14 105 2 130 -27 19 -22 38 -78 38 -109 0 -24 1 -24 111 -24 l112 0
-5 73 c-11 172 -130 280 -321 292 -40 2 -91 0 -115 -5z"/>
<path d="M6632 3290 c-118 -25 -223 -103 -274 -203 -44 -88 -58 -182 -58 -390
0 -292 23 -382 124 -483 77 -77 143 -104 271 -111 195 -11 331 63 406 220 43
91 52 171 47 420 -4 192 -8 231 -26 288 -39 120 -128 212 -238 245 -61 19
-195 26 -252 14z m186 -217 c15 -10 36 -37 47 -59 18 -35 20 -62 23 -296 4
-286 -1 -320 -52 -376 -31 -33 -39 -36 -97 -40 -55 -3 -69 0 -98 20 -19 13
-44 39 -55 58 -20 33 -21 51 -21 315 0 278 0 280 24 322 45 79 160 107 229 56z"/>
<path d="M7565 3286 c-112 -27 -208 -104 -255 -204 -37 -77 -49 -180 -49 -397
-1 -291 23 -381 125 -482 80 -77 139 -98 289 -98 111 0 125 2 180 28 123 57
203 174 213 309 l5 68 -117 0 c-64 0 -119 0 -123 0 -5 0 -11 -25 -14 -57 -6
-66 -16 -87 -54 -123 -23 -21 -36 -25 -90 -25 -59 0 -67 3 -99 34 -21 20 -38
50 -45 77 -15 57 -14 516 0 569 25 90 125 138 205 99 58 -29 78 -64 82 -144
l4 -70 125 0 126 0 -5 78 c-6 92 -35 174 -82 228 -84 99 -269 147 -421 110z"/>
<path d="M1370 2705 l0 -575 320 0 320 0 0 105 0 105 -200 0 -200 0 0 130 0
130 180 0 180 0 0 105 0 105 -180 0 -180 0 0 130 0 130 195 0 195 0 0 105 0
105 -315 0 -315 0 0 -575z"/>
<path d="M2380 3238 c-6 -24 -20 -72 -30 -108 -28 -95 -262 -951 -268 -977 -4
-23 -4 -23 120 -23 l124 0 30 118 31 117 158 0 159 0 22 -90 c12 -49 25 -102
28 -117 l6 -28 125 0 c69 0 125 2 125 4 0 2 -31 118 -70 257 -38 140 -106 391
-151 559 -44 168 -83 311 -85 318 -2 9 -43 12 -158 12 l-155 0 -11 -42z m229
-483 c23 -93 41 -172 41 -175 0 -3 -48 -4 -106 -2 l-105 3 6 32 c9 44 85 357
93 382 7 24 11 10 71 -240z"/>
<path d="M3820 3274 c0 -9 174 -441 239 -591 l61 -142 0 -205 0 -206 125 0
125 0 0 213 0 213 34 80 c83 194 256 622 256 633 0 8 -34 11 -132 9 l-131 -3
-63 -195 c-35 -107 -66 -207 -69 -222 -12 -51 -23 -39 -50 49 -14 49 -47 152
-72 231 l-47 142 -138 0 c-76 0 -138 -3 -138 -6z"/>
<path d="M5510 3175 l0 -105 110 0 111 0 -3 -470 -3 -470 123 0 122 0 0 470 0
470 125 0 125 0 0 105 0 105 -355 0 -355 0 0 -105z"/>
<path d="M8200 2705 l0 -575 125 0 125 0 2 265 3 265 133 -265 133 -265 134 0
c74 0 135 2 135 6 0 5 -280 548 -308 595 -14 25 -13 29 15 70 16 24 78 127
137 229 60 102 117 200 128 218 l20 32 -134 0 -133 0 -66 -113 c-37 -61 -96
-163 -130 -225 l-64 -113 -3 225 -2 226 -125 0 -125 0 0 -575z"/>
</g>
</svg>
